<?xml version="1.0" standalone="no"?>
<!DOCTYPE svg PUBLIC "-//W3C//DTD SVG 20010904//EN"
 "http://www.w3.org/TR/2001/REC-SVG-20010904/DTD/svg10.dtd">
<svg version="1.0" xmlns="http://www.w3.org/2000/svg"
 width="395.000000pt" height="395.000000pt" viewBox="0 0 395.000000 395.000000"
 preserveAspectRatio="xMidYMid meet">
<metadata>
Created by potrace 1.11, written by Peter Selinger 2001-2013
</metadata>
<g transform="translate(0.000000,395.000000) scale(0.100000,-0.100000)"
fill="#000000" stroke="none">
<path d="M1207 3673 c-1 0 -56 -4 -122 -8 -66 -3 -140 -8 -165 -10 -43 -4
-221 -14 -345 -20 l-60 -2 4 -99 c1 -55 4 -112 6 -129 2 -16 3 -44 4 -62 l1
-31 87 4 c49 2 107 6 131 8 33 3 49 -1 70 -18 87 -71 562 -464 581 -481 11
-11 11 -31 1 -121 -15 -135 -16 -147 -25 -209 -12 -96 -14 -112 -20 -166 -3
-30 -8 -63 -10 -74 -2 -11 -4 -29 -4 -41 -1 -21 -2 -21 -434 -21 -239 0 -438
-2 -443 -5 -17 -11 -8 -938 10 -1035 2 -10 7 -38 11 -63 4 -25 9 -54 11 -65 2
-11 7 -33 10 -49 9 -54 67 -178 115 -250 87 -130 239 -264 369 -323 213 -97
484 -102 704 -14 179 72 321 198 406 363 29 55 45 76 55 72 8 -4 15 -9 15 -13
0 -14 136 -108 200 -138 339 -158 824 -27 1039 282 51 72 104 193 117 265 3
14 9 41 14 60 9 34 15 81 25 190 8 82 9 709 2 717 -4 3 -261 6 -572 6 -311 0
-565 2 -565 3 0 2 50 94 111 206 61 112 126 230 144 263 18 33 47 87 65 120
92 169 142 255 148 256 7 1 21 3 80 14 31 6 32 5 32 -27 l0 -33 160 0 160 0 0
252 0 253 -160 0 -160 0 0 -60 c0 -50 -3 -60 -17 -61 -10 0 -29 -2 -43 -5 -14
-2 -83 -13 -155 -25 -71 -11 -141 -22 -155 -24 -30 -5 -207 -33 -550 -86 -282
-44 -292 -45 -370 -59 -30 -6 -68 -12 -85 -14 -16 -2 -51 -7 -77 -11 l-47 -7
-120 101 c-67 56 -121 104 -121 107 0 3 6 4 13 3 6 -1 38 -1 69 0 l58 1 -6 72
c-8 105 -13 189 -13 221 l-1 29 -91 -4 c-50 -2 -91 -4 -92 -5z m1241 -770
c-23 -43 -58 -107 -77 -143 -20 -36 -65 -118 -100 -183 l-64 -117 -27 38 c-14
20 -58 82 -97 137 -52 74 -92 117 -152 165 -44 36 -81 68 -81 72 0 5 9 9 20 9
11 1 23 2 28 3 10 3 100 17 142 22 19 3 46 7 60 9 14 3 39 7 55 9 17 3 75 12
130 21 55 9 118 19 140 22 22 3 42 7 44 9 2 2 8 4 13 4 5 0 -10 -35 -34 -77z
m-670 -425 c80 -85 172 -202 172 -217 0 -6 4 -11 8 -11 4 0 15 -13 25 -29 l16
-28 -167 1 c-150 1 -167 3 -166 18 4 51 15 158 18 174 2 11 7 52 11 92 4 39 9
72 12 72 3 0 35 -32 71 -72z m-504 -813 c-1 -11 -4 -47 -8 -80 -4 -33 -9 -85
-12 -115 -3 -30 -9 -71 -14 -91 -4 -21 -5 -42 -1 -47 3 -6 38 -13 76 -17 39
-4 72 -9 75 -10 3 -2 41 -6 86 -10 64 -5 81 -4 81 7 0 26 15 163 18 168 1 3 6
37 9 75 8 82 15 125 21 136 3 4 53 6 112 5 l108 -1 -1 -140 c0 -186 -11 -319
-31 -380 -4 -11 -8 -26 -9 -33 -1 -7 -16 -40 -32 -75 -124 -259 -486 -314
-681 -102 -41 44 -96 146 -107 196 -23 110 -27 159 -28 336 l-2 201 171 -1
c163 -2 170 -3 169 -22z m1120 -29 c21 -28 69 -96 108 -151 38 -55 76 -109 84
-119 13 -19 15 -18 71 20 32 21 85 58 117 82 33 24 66 47 74 51 13 7 5 24 -40
88 l-56 80 176 -1 177 -1 2 -100 c6 -340 -144 -509 -442 -500 -225 8 -356 110
-396 310 -12 56 -23 261 -15 280 2 7 24 12 54 12 48 0 51 -1 86 -51z"/>
</g>
</svg>
